<svg id="producto" xmlns="http://www.w3.org/2000/svg" viewBox="0 0 50 50"><defs><style>.cls-1{fill:#c8c8c8;}.cls-2{fill:#d3d3d3;}</style></defs><title>Mesa de trabajo 118</title><path class="cls-1" d="M46.37,45.55H3A2,2,0,1,1,3,41.6h43.4a2,2,0,1,1,0,3.95Z"/><path class="cls-2" d="M28.29,20.66a2,2,0,0,0-2.69.72l-7.5,13L6.65,14.55a2,2,0,1,0-3.42,2L16.39,39.3h0l.14.2,0,0,.13.15.05.05.13.11.05,0,.18.12h0l.17.08.07,0,.07,0a2,2,0,0,0,.67.12h0a2,2,0,0,0,.67-.12l.07,0,.07,0,.17-.08h0l.18-.12.05,0,.13-.11.05-.05.13-.15,0,0,.14-.2h0L29,23.36A2,2,0,0,0,28.29,20.66Z"/><path class="cls-2" d="M32.23,13.83a2,2,0,0,0-2.69.72l-1.32,2.28a2,2,0,1,0,3.42,2L33,16.52A2,2,0,0,0,32.23,13.83Z"/><path class="cls-2" d="M35,9.34a2.13,2.13,0,0,0-.34-.18A2,2,0,0,0,34.26,9a1.9,1.9,0,0,0-.77,0,2,2,0,0,0-.37.11,2.13,2.13,0,0,0-.34.18,1.89,1.89,0,0,0-.3.25A2,2,0,0,0,31.9,11a1.91,1.91,0,0,0,0,.39,2,2,0,0,0,.29.71,1.88,1.88,0,0,0,.25.3,2,2,0,0,0,.3.25,2,2,0,0,0,.34.18,2,2,0,0,0,.37.11,2,2,0,0,0,.77,0,2,2,0,0,0,.37-.11,2,2,0,0,0,.34-.18,2,2,0,0,0,.3-.25,1.87,1.87,0,0,0,.25-.3,2,2,0,0,0,.29-.71,1.91,1.91,0,0,0,0-.39,2,2,0,0,0-.58-1.39A1.89,1.89,0,0,0,35,9.34Z"/><path class="cls-2" d="M38.44,6a1.79,1.79,0,0,0-.11-.37,1.82,1.82,0,0,0-.18-.34A2,2,0,0,0,37.9,5a1.87,1.87,0,0,0-.3-.24,1.82,1.82,0,0,0-.34-.18,2,2,0,0,0-2.73,1.82,1.93,1.93,0,0,0,0,.39,1.83,1.83,0,0,0,.11.37,1.81,1.81,0,0,0,.18.34,1.71,1.71,0,0,0,.25.3,2,2,0,0,0,1.39.58,1.9,1.9,0,0,0,.39,0,2,2,0,0,0,.37-.11,2.13,2.13,0,0,0,.34-.18,1.89,1.89,0,0,0,.3-.25,2,2,0,0,0,.43-.64,1.83,1.83,0,0,0,.11-.37,1.91,1.91,0,0,0,0-.77Z"/><path class="cls-1" d="M33.55,29.77a2,2,0,0,0-2.69.72l-2.24,3.87L17.17,14.55a2,2,0,1,0-3.42,2L26.91,39.3h0l.14.2,0,0,.13.15.05.05.13.11.05,0,.18.12h0l.17.08.07,0,.07,0a2,2,0,0,0,.67.12h0a2,2,0,0,0,.67-.12l.07,0,.07,0L29.6,40h0l.18-.12.05,0,.13-.11L30,39.7l.13-.15,0,0,.14-.2h0l3.95-6.83A2,2,0,0,0,33.55,29.77Z"/><path class="cls-1" d="M38.81,20.66a2,2,0,0,0-2.69.72l-2.63,4.56a2,2,0,1,0,3.42,2l2.63-4.56A2,2,0,0,0,38.81,20.66Z"/><path class="cls-1" d="M42.75,13.83a2,2,0,0,0-2.69.72l-1.32,2.28a2,2,0,1,0,3.42,2l1.32-2.28A2,2,0,0,0,42.75,13.83Z"/><path class="cls-1" d="M45.49,9.34a2.13,2.13,0,0,0-.34-.18A2,2,0,0,0,44.78,9,1.9,1.9,0,0,0,44,9a2,2,0,0,0-.37.11,2.13,2.13,0,0,0-.34.18,1.89,1.89,0,0,0-.3.25A2,2,0,0,0,42.42,11a1.91,1.91,0,0,0,0,.39,2,2,0,0,0,.29.71,1.88,1.88,0,0,0,.25.3,2,2,0,0,0,.3.25,2,2,0,0,0,.34.18,2,2,0,0,0,.37.11,2,2,0,0,0,.77,0,2,2,0,0,0,.37-.11,2,2,0,0,0,.34-.18,2,2,0,0,0,.3-.25,1.87,1.87,0,0,0,.25-.3,2,2,0,0,0,.29-.71,1.91,1.91,0,0,0,0-.39,2,2,0,0,0-.58-1.39A1.89,1.89,0,0,0,45.49,9.34Z"/><path class="cls-1" d="M49,6a1.79,1.79,0,0,0-.11-.37,1.82,1.82,0,0,0-.18-.34,1.87,1.87,0,0,0-.25-.3,2,2,0,0,0-3.37,1.4,1.93,1.93,0,0,0,0,.39,1.83,1.83,0,0,0,.11.37,2,2,0,0,0,.43.64,2,2,0,0,0,2.79,0,1.7,1.7,0,0,0,.25-.3,1.81,1.81,0,0,0,.18-.34A1.83,1.83,0,0,0,49,6.81,1.91,1.91,0,0,0,49,6Z"/></svg>