<svg id="producto" xmlns="http://www.w3.org/2000/svg" viewBox="0 0 50 50"><defs><style>.cls-1{fill:#c8c8c8;}</style></defs><title>Mesa de trabajo 118</title><path class="cls-1" d="M12.28,7.76l4.62-.37A3.2,3.2,0,0,0,16.38,1L4.87,1.95A3.2,3.2,0,0,0,1.95,4.88L1,16.38a3.19,3.19,0,1,0,6.37.52l.38-4.62,9.1,9.1a3.2,3.2,0,0,0,4.52-4.52ZM46.06,30.18a3.19,3.19,0,0,0-3.44,2.93l-.38,4.62-9.1-9.1a3.2,3.2,0,0,0-4.52,4.52l9.1,9.1-4.62.38A3.2,3.2,0,0,0,33.62,49l11.5-.94a3.2,3.2,0,0,0,2.93-2.93L49,33.62a3.19,3.19,0,0,0-2.92-3.44m-29.2-1.55-9.1,9.1L7.38,33.1A3.2,3.2,0,0,0,1,33.62l.93,11.51a3.2,3.2,0,0,0,2.93,2.92l11.5.93a3.19,3.19,0,1,0,.52-6.37l-4.62-.38,9.1-9.1a3.2,3.2,0,0,0-4.52-4.52m11.76-7.24a3.2,3.2,0,0,1,0-4.52l9.1-9.1L33.1,7.38A3.2,3.2,0,1,1,33.62,1l11.51.93a3.2,3.2,0,0,1,2.93,2.93L49,16.38a3.19,3.19,0,1,1-6.37.52l-.38-4.62-9.1,9.1a3.2,3.2,0,0,1-4.52,0"/></svg>