<svg id="producto" xmlns="http://www.w3.org/2000/svg" viewBox="0 0 50 50"><defs><style>.cls-1{fill:#d3d3d3;}.cls-2{fill:#c8c8c8;}</style></defs><title>Mesa de trabajo 117</title><path class="cls-1" d="M48,45.94l-5.31-29.2a1.45,1.45,0,0,0-1.43-1.19H31.5a8.73,8.73,0,1,0-13,0H8.76a1.45,1.45,0,0,0-1.43,1.19L2,45.94a1.45,1.45,0,0,0,1.34,1.71L24.91,49h.18l21.55-1.35A1.45,1.45,0,0,0,48,45.94ZM25,4.64a4.85,4.85,0,1,1-4.85,4.85A4.85,4.85,0,0,1,25,4.64Z"/><path class="cls-2" d="M18.49,15.55H8.76a1.45,1.45,0,0,0-1.43,1.19L2,45.94a1.45,1.45,0,0,0,1.34,1.71L24.91,49h0V18.47h0A8.7,8.7,0,0,1,18.49,15.55Z"/></svg>