<svg id="producto" xmlns="http://www.w3.org/2000/svg" viewBox="0 0 50 50"><defs><style>.cls-1{fill:#c8c8c8;}</style></defs><title>Mesa de trabajo 117</title><path class="cls-1" d="M12.75,26.18l.05-.07.06-.08.05-.08,0-.07,0-.09,0-.08,0-.09,0-.09,0-.09,0-.09,0-.1v-.08a1.88,1.88,0,0,0,0-.37v-.08l0-.1,0-.09,0-.09,0-.09,0-.09,0-.08,0-.09,0-.07L12.86,24l-.06-.08-.05-.07-.12-.14h0l-5-5A1.87,1.87,0,0,0,5,21.34L6.8,23.13H2.87a1.87,1.87,0,1,0,0,3.73H6.8L5,28.66A1.87,1.87,0,0,0,7.65,31.3l5-5h0Z"/><path class="cls-1" d="M47.13,23.13H43.2L45,21.34a1.87,1.87,0,1,0-2.64-2.64l-5,5h0l-.12.14-.05.07-.06.08-.05.08,0,.07,0,.09,0,.08,0,.09,0,.09,0,.09,0,.09,0,.1v.08a1.88,1.88,0,0,0,0,.37v.08l0,.1,0,.09,0,.09,0,.09,0,.08,0,.08,0,.09,0,.07.05.08.06.08.05.07.12.14h0l5,5A1.87,1.87,0,1,0,45,28.66L43.2,26.87h3.93a1.87,1.87,0,0,0,0-3.73Z"/><path class="cls-1" d="M26.32,37.37h0l-.14-.12-.06,0L26,37.14l-.08,0-.08,0-.08,0-.09,0-.08,0-.1,0-.08,0-.1,0h-.73l-.1,0-.08,0-.1,0-.08,0-.09,0-.08,0-.08,0-.08,0-.08.06-.06,0-.14.12h0l-5,5A1.87,1.87,0,0,0,21.34,45l1.79-1.79v3.93a1.87,1.87,0,0,0,3.73,0V43.2L28.66,45a1.87,1.87,0,0,0,2.64-2.64Z"/><path class="cls-1" d="M23.68,12.63h0l.14.12.06,0,.08.06.08,0,.08,0,.08,0,.08,0,.08,0,.09,0,.08,0,.09,0h.73l.09,0,.08,0,.09,0,.08,0,.08,0,.08,0,.08,0,.08,0,.08-.06.06,0,.14-.12h0l5-5A1.87,1.87,0,0,0,28.66,5L26.87,6.8V2.87a1.87,1.87,0,1,0-3.73,0V6.8L21.34,5A1.87,1.87,0,0,0,18.7,7.65Z"/><path class="cls-1" d="M36.21,25.07a1.25,1.25,0,0,1,0-.25L37.3,14.07a1.24,1.24,0,0,0-1.36-1.36L25.12,13.79h-.25L14.06,12.7a1.24,1.24,0,0,0-1.36,1.36l1.08,11a1.24,1.24,0,0,1,0,.25L12.71,35.93a1.24,1.24,0,0,0,1.36,1.36l10.81-1.08h.25L35.93,37.3a1.24,1.24,0,0,0,1.36-1.36Z"/></svg>