<svg id="producto" xmlns="http://www.w3.org/2000/svg" xmlns:xlink="http://www.w3.org/1999/xlink" viewBox="0 0 32 32"><defs><style>.cls-1{fill:#3b3b3a;}.cls-2{fill:#5d0b02;}.cls-3{fill:url(#linear-gradient);}.cls-4{fill:url(#linear-gradient-2);}</style><linearGradient id="linear-gradient" x1="20.2" y1="22.97" x2="20.2" y2="10.04" gradientUnits="userSpaceOnUse"><stop offset="0" stop-color="#b11521"/><stop offset="0.4" stop-color="#951317"/><stop offset="0.74" stop-color="#831111"/><stop offset="1" stop-color="#7d110f"/></linearGradient><linearGradient id="linear-gradient-2" x1="21.12" y1="17.96" x2="11.68" y2="21.65" gradientUnits="userSpaceOnUse"><stop offset="0" stop-color="gray"/><stop offset="0.17" stop-color="#6e6e6e"/><stop offset="0.5" stop-color="#525252"/><stop offset="0.79" stop-color="#414140"/><stop offset="1" stop-color="#3b3b3a"/></linearGradient></defs><title>Mesa de trabajo 123</title><path class="cls-1" d="M1.27,21.21A29.41,29.41,0,0,1,9.7,20.15a4.66,4.66,0,0,1,1.08.16l2.82-1.25.74.32-2.58,1.36c2.27,1.43,1.92,5,1.92,5s7.71-8.1,13.42-10.1C9.77,16.43,1.27,21.21,1.27,21.21Zm14.52-2.08-.65-.43,2.63-1.08.57.26Zm4.14-1.6-.43-.36,2-.58.39.23Zm3.66-1.3L24.81,16l.23.16-1.2.34Z"/><path class="cls-2" d="M14.23,11.45a7.83,7.83,0,0,0-.71.83c6.47-.87,12.87,2.5,12.87,2.5-5-1.57-11.44-1-13.8-.83a7.7,7.7,0,0,0-.33,1c4.14-.66,14,.21,14,.21a75.45,75.45,0,0,0-14.26,2h0l-2,.46a8.9,8.9,0,0,1-.12-1.48c0-5.32,4.72-9.63,10.54-9.63S31,10.85,31,16.17s-3.91,9.37-9.72,9.37c-1.69,0-3.77-.62-4.61-1.61a8.46,8.46,0,0,0,3.07.39c4.45.26,8.42-3.16,8.42-7.48a7.62,7.62,0,0,0-.11-1.27L28,15A8,8,0,0,0,20.1,9a8.23,8.23,0,0,0-3.42.74A10.8,10.8,0,0,0,14.23,11.45Z"/><path class="cls-3" d="M14,11.18a7.78,7.78,0,0,0-.71.83c6.46-.87,13,2.69,13,2.69-5-1.57-11.56-1.22-13.92-1a7.79,7.79,0,0,0-.33,1c4.14-.66,14.21.47,14.21.47a86.57,86.57,0,0,0-14.43,1.76h0l-2,.46a8.82,8.82,0,0,1-.12-1.48c0-5.32,4.72-9.63,10.54-9.63s10.54,4.31,10.54,9.63-3.9,9.37-9.72,9.37c-1.69,0-3.77-.62-4.61-1.61a8.45,8.45,0,0,0,3.07.39c4.45.26,8.43-3.16,8.43-7.48a7.62,7.62,0,0,0-.11-1.27l-.1-.51a8,8,0,0,0-7.86-6.06,8.23,8.23,0,0,0-3.42.74A10,10,0,0,0,14,11.18Z"/><path class="cls-4" d="M1,21.21a29.41,29.41,0,0,1,8.44-1.06,4.64,4.64,0,0,1,1.08.16l2.82-1.25.74.32L11.5,20.73c2.27,1.43,1.92,5,1.92,5s7.71-8.1,13.42-10.1C9.5,16.43,1,21.21,1,21.21Zm14.52-2.08-.65-.43,2.63-1.08.57.26Zm4.14-1.6-.43-.36,2-.58.39.23Zm3.66-1.3L24.54,16l.23.16-1.2.34Z"/></svg>