<svg width="16" height="16" viewBox="0 0 16 16" fill="none" xmlns="http://www.w3.org/2000/svg">
<path d="M15.4635 7.04336L11.4635 4.28613L10.7535 5.29242L13.8435 7.41569H2.16346L5.25346 5.30248L4.54346 4.2962L0.543457 7.04336C0.388212 7.16053 0.262208 7.31246 0.175423 7.48712C0.0886384 7.66178 0.043457 7.85438 0.043457 8.04965C0.043457 8.24493 0.0886384 8.43753 0.175423 8.61219C0.262208 8.78685 0.388212 8.93878 0.543457 9.05594L4.54346 11.8132L5.25346 10.8069L2.16346 8.67355H13.8435L10.7535 10.7968L11.4635 11.8031L15.4635 9.04588C15.6168 8.92853 15.7411 8.7771 15.8267 8.60342C15.9123 8.42973 15.9568 8.23849 15.9568 8.04462C15.9568 7.85076 15.9123 7.65951 15.8267 7.48583C15.7411 7.31214 15.6168 7.16071 15.4635 7.04336Z" fill="#383837"/>
</svg>
