<svg width="16" height="16" viewBox="0 0 16 16" fill="none" xmlns="http://www.w3.org/2000/svg">
<path d="M15.46 6.97904L12.26 4.78904L11.55 5.78904L13.84 7.35904H8.62004V2.13904L10.19 4.42904L11.19 3.71904L9.00004 0.519043C8.88361 0.363798 8.73263 0.237794 8.55906 0.151009C8.38549 0.0642243 8.1941 0.019043 8.00004 0.019043C7.80598 0.019043 7.61459 0.0642243 7.44102 0.151009C7.26745 0.237794 7.11647 0.363798 7.00004 0.519043L4.78004 3.71904L5.78004 4.42904L7.37004 2.13904V7.35904H2.16004L4.45004 5.78904L3.74004 4.78904L0.540039 6.97904C0.384794 7.09548 0.25879 7.24646 0.172005 7.42003C0.0852204 7.5936 0.0400391 7.78499 0.0400391 7.97904C0.0400391 8.1731 0.0852204 8.36449 0.172005 8.53806C0.25879 8.71163 0.384794 8.86261 0.540039 8.97904L3.74004 11.169L4.45004 10.169L2.16004 8.59904H7.37004V13.819L5.81004 11.529L4.81004 12.239L7.00004 15.439C7.11491 15.6061 7.2687 15.7427 7.44814 15.8371C7.62758 15.9315 7.82729 15.9808 8.03004 15.9808C8.23279 15.9808 8.43249 15.9315 8.61193 15.8371C8.79137 15.7427 8.94516 15.6061 9.06004 15.439L11.25 12.239L10.25 11.529L8.62004 13.819V8.59904H13.84L11.55 10.169L12.26 11.169L15.46 8.97904C15.6153 8.86261 15.7413 8.71163 15.8281 8.53806C15.9149 8.36449 15.96 8.1731 15.96 7.97904C15.96 7.78499 15.9149 7.5936 15.8281 7.42003C15.7413 7.24646 15.6153 7.09548 15.46 6.97904Z" fill="#383837"/>
</svg>
