<svg width="16" height="16" viewBox="0 0 16 16" fill="none" xmlns="http://www.w3.org/2000/svg">
<path fill-rule="evenodd" clip-rule="evenodd" d="M9.9998 2.4C9.9998 3.01468 9.76872 3.57539 9.38869 4H9.65089V5.06952H9.05505L12.3278 12.5305H13.2V12.8V13.6V16H2V13.6V12.8V12.5305H2.86353L6.13631 5.06952H5.52321V4H5.81092C5.43089 3.57539 5.1998 3.01468 5.1998 2.4C5.1998 1.07452 6.27432 0 7.5998 0C8.92529 0 9.9998 1.07452 9.9998 2.4ZM7.6002 3.9C8.42862 3.9 9.1002 3.22843 9.1002 2.4C9.1002 1.57157 8.42862 0.9 7.6002 0.9C6.77177 0.9 6.1002 1.57157 6.1002 2.4C6.1002 3.22843 6.77177 3.9 7.6002 3.9ZM7.31072 5.06952H7.87201L11.1534 12.5305H4.03793L7.31072 5.06952Z" fill="#383837"/>
</svg>
