<svg width="16" height="16" viewBox="0 0 16 16" fill="none" xmlns="http://www.w3.org/2000/svg">
<path fill-rule="evenodd" clip-rule="evenodd" d="M8.8 0.75C9.35228 0.75 9.8 1.19772 9.8 1.75V6.45C9.8 6.45849 9.79989 6.46697 9.79968 6.47541L12.198 6.47541C13.0885 6.47541 13.5349 7.55173 12.9057 8.18194L8.68801 12.4065C8.29736 12.7978 7.6633 12.7978 7.27264 12.4065L3.05497 8.18193C2.4258 7.55173 2.87215 6.47541 3.76266 6.47541L6.20032 6.4754C6.20011 6.46696 6.2 6.45849 6.2 6.45V1.75C6.2 1.19772 6.64772 0.75 7.2 0.75H8.8ZM4.36551 7.72541L7.48188 7.72541L7.45 6.44714V2H8.55V6.44712L8.51812 7.72541H11.5951L7.98032 11.3462L4.36551 7.72541Z" fill="#383837"/>
<path d="M2.5 15.25H13.5V14H2.5V15.25Z" fill="#383837"/>
</svg>
