<svg width="16" height="16" viewBox="0 0 16 16" fill="none" xmlns="http://www.w3.org/2000/svg">
<g clip-path="url(#clip0_228_3594)">
<path d="M7.25 11.202V12.622H8.75V11.202C9.00122 11.0839 9.21415 10.8975 9.36446 10.664C9.51476 10.4306 9.59639 10.1596 9.6 9.88205C9.59354 9.67846 9.54702 9.47815 9.46309 9.29256C9.37917 9.10697 9.25948 8.93974 9.11089 8.80043C8.96229 8.66112 8.7877 8.55247 8.59708 8.48068C8.40647 8.40889 8.20358 8.37537 8 8.38205C7.79642 8.37537 7.59353 8.40889 7.40292 8.48068C7.2123 8.55247 7.03771 8.66112 6.88911 8.80043C6.74052 8.93974 6.62083 9.10697 6.53691 9.29256C6.45298 9.47815 6.40646 9.67846 6.4 9.88205C6.40362 10.1596 6.48524 10.4306 6.63554 10.664C6.78585 10.8975 6.99878 11.0839 7.25 11.202Z" fill="#383837"/>
<path d="M14.75 5.00205H13.5C13.4249 3.61284 12.8056 2.30913 11.7761 1.37328C10.7467 0.437433 9.39006 -0.0552116 8 0.002045C6.60994 -0.0552116 5.25328 0.437433 4.22385 1.37328C3.19442 2.30913 2.57509 3.61284 2.5 5.00205H1.25C0.918479 5.00205 0.600537 5.13374 0.366117 5.36816C0.131696 5.60258 0 5.92052 0 6.25205V14.752C0 15.0836 0.131696 15.4015 0.366117 15.6359C0.600537 15.8703 0.918479 16.002 1.25 16.002H14.75C15.0815 16.002 15.3995 15.8703 15.6339 15.6359C15.8683 15.4015 16 15.0836 16 14.752V6.25205C16 5.92052 15.8683 5.60258 15.6339 5.36816C15.3995 5.13374 15.0815 5.00205 14.75 5.00205ZM8 1.25205C9.05815 1.19691 10.0958 1.55867 10.8903 2.25972C11.6848 2.96076 12.1729 3.94526 12.25 5.00205H3.75C3.82705 3.94526 4.31519 2.96076 5.10971 2.25972C5.90423 1.55867 6.94185 1.19691 8 1.25205ZM14.75 14.752H1.25V6.25205H14.75V14.752Z" fill="#383837"/>
</g>
<defs>
<clipPath id="clip0_228_3594">
<rect width="16" height="16" fill="white"/>
</clipPath>
</defs>
</svg>
