<svg width="16" height="16" viewBox="0 0 16 16" fill="none" xmlns="http://www.w3.org/2000/svg">
<path fill-rule="evenodd" clip-rule="evenodd" d="M8 11.4167C10.1537 11.4167 11.75 9.80715 11.75 8C11.75 6.19286 10.1537 4.58334 8 4.58334C5.8463 4.58334 4.25 6.19286 4.25 8C4.25 9.80715 5.8463 11.4167 8 11.4167ZM8 12.6667C10.7614 12.6667 13 10.5773 13 8C13 5.42268 10.7614 3.33334 8 3.33334C5.23858 3.33334 3 5.42268 3 8C3 10.5773 5.23858 12.6667 8 12.6667Z" fill="#383837"/>
<path fill-rule="evenodd" clip-rule="evenodd" d="M7.33333 2V0L8.58333 5.46393e-08V2H7.33333Z" fill="#383837"/>
<path fill-rule="evenodd" clip-rule="evenodd" d="M7.33333 16V14H8.58333V16H7.33333Z" fill="#383837"/>
<path fill-rule="evenodd" clip-rule="evenodd" d="M14 7.33333H16V8.58333H14V7.33333Z" fill="#383837"/>
<path fill-rule="evenodd" clip-rule="evenodd" d="M1.09279e-07 7.33333H2L2 8.58333H0L1.09279e-07 7.33333Z" fill="#383837"/>
<path fill-rule="evenodd" clip-rule="evenodd" d="M11.7712 3.28596L13.1854 1.87174L14.0693 2.75563L12.6551 4.16984L11.7712 3.28596Z" fill="#383837"/>
<path fill-rule="evenodd" clip-rule="evenodd" d="M1.87175 13.1854L3.28596 11.7712L4.16984 12.6551L2.75563 14.0693L1.87175 13.1854Z" fill="#383837"/>
<path fill-rule="evenodd" clip-rule="evenodd" d="M12.714 11.7712L14.1282 13.1854L13.2444 14.0693L11.8301 12.6551L12.714 11.7712Z" fill="#383837"/>
<path fill-rule="evenodd" clip-rule="evenodd" d="M2.81456 1.87174L4.22877 3.28595L3.34489 4.16983L1.93068 2.75562L2.81456 1.87174Z" fill="#383837"/>
</svg>
