<svg width="49" height="34" viewBox="0 0 49 34" fill="none" xmlns="http://www.w3.org/2000/svg">
<g clip-path="url(#clip0_3_52971)">
<path d="M0 25.5755C0 25.5755 6.42623 23.6111 13.831 23.8291C14.4305 23.8429 15.0262 23.9278 15.6058 24.0823L20.2296 22.0218L21.4478 22.5429L17.2091 24.7734C20.9355 27.1186 20.3623 33.0026 20.3623 33.0026C20.3623 33.0026 32.9991 19.6804 42.3648 16.4001C13.9398 17.7067 0 25.5755 0 25.5755ZM23.3736 22.1511L22.3121 21.4433L26.63 19.6619L27.5644 20.098L23.3736 22.1511ZM30.1574 19.5214L29.4515 18.9375L32.66 17.9894L33.294 18.359L30.1574 19.5214ZM36.1579 17.3814L38.163 16.949L38.5316 17.2096L36.5633 17.764L36.1579 17.3814Z" fill="#383837"/>
<path d="M13.7627 16.8307C13.7615 17.6488 13.83 18.4655 13.9673 19.272C15.0042 19.0132 16.0885 18.7594 17.22 18.5106V18.4921C20.4985 17.7788 29.3832 16.0546 40.8848 15.5963C40.8848 15.5963 24.3779 13.7483 17.5923 14.8294C17.7363 14.2731 17.916 13.7268 18.1304 13.1939C22.0005 12.8686 32.7023 12.2865 40.9604 14.8719C40.9604 14.8719 30.2715 9.02294 19.6656 10.4533C20.0197 9.96746 20.4071 9.50682 20.8247 9.07469C21.9858 7.70347 24.8275 6.25648 24.8275 6.25648C26.5895 5.45217 28.5033 5.03685 30.4392 5.03865C36.7051 5.03865 41.9611 9.28905 43.323 14.9938L43.4962 15.831C43.6145 16.5227 43.6762 17.223 43.6805 17.9248C43.6805 25.0433 37.1621 30.6649 29.8587 30.2325C28.4267 30.1438 26.0365 30.2824 24.8257 29.5949C26.1858 31.2156 29.6025 32.2338 32.3816 32.2338C41.9224 32.2338 48.3246 25.581 48.3246 16.8307C48.3246 8.08046 40.5789 0.99707 31.0363 0.99707C21.4937 0.99707 13.7627 8.08785 13.7627 16.8307Z" fill="#BF0C2A"/>
</g>
<defs>
<clipPath id="clip0_3_52971">
<rect width="48.3248" height="32.0055" fill="white" transform="translate(0 0.99707)"/>
</clipPath>
</defs>
</svg>
