<svg width="173" height="28" viewBox="0 0 173 28" fill="none" xmlns="http://www.w3.org/2000/svg">
<g clip-path="url(#clip0_51_2623)">
<path d="M136.641 5.47731C136.204 5.23513 135.728 5.07281 135.235 4.99791C134.519 4.89022 133.794 4.84182 133.07 4.85318H129.762V19.9498H131.63V13.7945H133.319C134.024 13.8057 134.729 13.7443 135.422 13.6113C135.941 13.5056 136.436 13.3023 136.881 13.0121C137.469 12.6159 137.941 12.0695 138.249 11.4291C138.576 10.7611 138.744 10.0256 138.739 9.28087C138.748 8.51038 138.558 7.75068 138.189 7.07607C137.821 6.41602 137.287 5.86474 136.641 5.47731V5.47731ZM136.742 9.34419C136.742 10.2171 136.493 10.8434 135.985 11.2527C135.478 11.6621 134.638 11.8791 133.515 11.8791H131.63V6.73461H133.4C134.588 6.73461 135.457 6.94718 135.979 7.36552C136.5 7.78387 136.742 8.43739 136.742 9.34419V9.34419Z" fill="#808080"/>
<path d="M142.575 4.85474H140.7V19.9491H147.694V18.088H142.575V4.85474Z" fill="#808080"/>
<path d="M154.78 4.85303L148.969 19.9497H150.95L152.689 15.3479H158.852L160.59 19.9497H162.589L156.799 4.85303H154.78ZM158.191 13.5885H153.344L155.75 7.0827L158.191 13.5885Z" fill="#808080"/>
<path d="M171.393 12.8899C170.944 12.2838 170.234 11.7818 169.253 11.3997C168.97 11.2888 168.579 11.1532 168.101 11.0039C167.256 10.728 166.688 10.4816 166.407 10.2712C166.16 10.095 165.958 9.86257 165.817 9.59285C165.689 9.31291 165.628 9.0073 165.637 8.69963C165.625 8.39546 165.675 8.09206 165.782 7.80763C165.89 7.52319 166.054 7.26358 166.263 7.04433C166.472 6.83016 166.723 6.66237 167 6.55176C167.277 6.44115 167.574 6.39017 167.872 6.40211C168.141 6.38806 168.409 6.43249 168.66 6.53239C168.91 6.63228 169.136 6.78529 169.322 6.98101C169.686 7.37449 169.904 7.95339 169.974 8.69736L169.992 8.89862H171.775L171.762 8.67249C171.683 7.3971 171.312 6.38854 170.639 5.67623C169.965 4.96391 169.03 4.59079 167.878 4.59079C167.33 4.57267 166.785 4.66855 166.275 4.87243C165.766 5.07632 165.304 5.38383 164.918 5.77572C164.537 6.17684 164.239 6.6508 164.042 7.16967C163.845 7.68854 163.754 8.24181 163.773 8.79686C163.734 9.64423 163.996 10.4778 164.512 11.1486C165.008 11.7456 165.814 12.2409 166.917 12.623L167.189 12.7135L167.274 12.7429C169.233 13.3919 170.194 14.31 170.194 15.5424C170.194 16.3927 169.969 17.0711 169.509 17.5595C169.27 17.8079 168.981 18.0017 168.661 18.1277C168.342 18.2537 167.999 18.3091 167.656 18.2899C167.33 18.3046 167.004 18.2465 166.703 18.1198C166.402 17.9932 166.132 17.8011 165.913 17.5573C165.464 17.0643 165.239 16.3859 165.206 15.5356V15.3231H163.391V15.5492C163.411 16.9399 163.813 18.0796 164.588 18.9412C164.972 19.3686 165.443 19.7067 165.97 19.932C166.497 20.1573 167.066 20.2645 167.638 20.246C168.97 20.246 170.057 19.7824 170.868 18.8688C171.678 17.9553 172.076 16.7567 172.076 15.2846C172.06 14.3032 171.836 13.5004 171.393 12.8899Z" fill="#808080"/>
<path d="M52.5114 4.8667V6.76396L54.2408 6.85441V15.6736C54.2408 17.0801 53.841 17.7088 52.6461 17.7088C52.2536 17.7254 51.8616 17.6655 51.4917 17.5324C51.0942 17.3764 51.029 17.1977 51.029 16.7749V15.011L48.7673 15.1512V19.0588C49.9648 19.7049 51.3082 20.0274 52.6663 19.995C55.3054 19.995 56.635 18.7467 56.8551 16.7161C56.9287 15.9367 56.9586 15.1538 56.9449 14.3711V7.43557C56.9449 6.98331 57.1426 6.78657 57.5873 6.74134L58.3172 6.67576V4.8667H52.5114Z" fill="#BF0C2A"/>
<path d="M61.4057 12.2117C61.4057 9.55687 62.3378 6.89981 65.1722 6.89981C68.2335 6.89981 68.8309 10.1132 68.8309 12.3881C68.8309 15.0677 68.0313 17.7452 65.2171 17.7452C62.0256 17.7452 61.399 14.7557 61.399 12.2117H61.4057ZM58.6297 12.3225C58.6297 17.4105 61.1115 19.9974 65.0554 19.9974C68.9342 19.9974 71.5687 17.4331 71.5687 12.3225C71.5687 6.65558 68.5996 4.60229 65.298 4.60229C62.1963 4.60229 58.6274 6.61036 58.6274 12.3225" fill="#BF0C2A"/>
<path d="M75.9906 7.03079H77.6077C79.4921 7.03079 80.6443 7.27728 80.6443 9.29212C80.6443 10.8751 79.7998 11.7457 77.9176 11.7457H75.9906V7.03079ZM72.0242 4.8667V6.76396L73.2865 6.8318V17.2068C73.2865 17.659 73.0192 17.7879 72.6419 17.8309L71.9097 17.8987V19.7078H77.4303V17.8106L75.9906 17.7427V13.86H78.012C78.7891 13.86 79.0968 14.1947 79.409 14.8867L80.4511 17.1163C80.651 17.5686 80.5387 17.7653 80.0289 17.8309L79.3865 17.8987V19.7078H84.8599V17.8106L83.5977 17.7653L82.0008 14.2603C81.6684 13.5027 81.3383 13.1296 80.7386 12.9035C81.9492 12.4105 83.3866 11.2029 83.3866 8.97328C83.3866 5.93857 81.327 4.8667 78.0681 4.8667H72.0242Z" fill="#BF0C2A"/>
<path d="M90.0867 7.03037H92.0564C94.4529 7.03037 96.3799 8.14747 96.3799 12.1636C96.3799 15.7342 94.8302 17.5636 92.3372 17.5636H90.0867V7.03037ZM86.1203 4.86628V6.76353L87.3825 6.83137V17.2064C87.3825 17.6586 87.1175 17.7875 86.7402 17.8305L86.0103 17.8983V19.7074H92.299C95.8723 19.7051 99.1088 17.6089 99.1088 11.7588C99.1088 7.11856 96.4271 4.86401 92.1957 4.86401L86.1203 4.86628Z" fill="#BF0C2A"/>
<path d="M105.586 7.36547H105.651L107.643 13.7266H103.524L105.586 7.36547ZM102.105 4.87801V6.68707L103.502 6.82049L99.9328 17.2226C99.7779 17.6455 99.6454 17.8038 99.259 17.8467L98.5269 17.9146V19.7236H103.648V17.8106L102.318 17.7427L102.992 15.7799H108.176L108.643 17.1616C108.798 17.6545 108.575 17.7879 108.113 17.84L107.268 17.9078V19.7169H112.986V17.8106L111.722 17.7427H111.702L107.181 4.8667L102.105 4.87801Z" fill="#BF0C2A"/>
<path d="M122.759 4.8667V6.76396L124.221 6.8318V15.1083H124.176L117.905 4.8667H113.916V6.76396L115.179 6.8318V17.2068C115.179 17.659 114.979 17.8106 114.604 17.8309L113.806 17.8987V19.7078H119.233V17.8106L117.795 17.7427V9.30569H117.84L124.243 19.7078H126.838V7.43557C126.838 6.96521 127.035 6.75717 127.368 6.74134L128.167 6.67576V4.8667H122.759Z" fill="#BF0C2A"/>
<path d="M0.0615234 21.5009C3.98497 20.4069 8.04532 19.892 12.1157 19.9722C12.6384 19.9877 13.1576 20.0636 13.6631 20.1983L17.6902 18.3893L18.7525 18.8415L15.0579 20.8044C18.3056 22.8509 17.8047 27.9999 17.8047 27.9999C17.8047 27.9999 28.81 16.3428 36.9786 13.4731C12.21 14.6219 0.0615234 21.5009 0.0615234 21.5009ZM20.4302 18.5046L19.5049 17.885L23.2692 16.3337L24.0934 16.7136L20.4302 18.5046ZM26.3394 16.2048L25.7218 15.6938L28.5202 14.8639L29.0727 15.1963L26.3394 16.2048ZM31.5725 14.337L33.3199 13.9571L33.6433 14.1832L31.9251 14.6762L31.5725 14.337Z" fill="#383837"/>
<path d="M12.0552 13.8552C12.0544 14.5706 12.1146 15.2848 12.2349 15.9899C13.1332 15.7637 14.0833 15.5376 15.067 15.325V15.3092C21.8591 13.8827 28.7584 13.0348 35.6918 12.7743C35.6918 12.7743 21.3176 11.1574 15.3927 12.0959C15.5176 11.6081 15.6744 11.1291 15.8621 10.6622C19.2311 10.375 28.5608 9.86619 35.7569 12.1298C35.7569 12.1298 26.4361 7.01013 17.1985 8.2629C17.507 7.83928 17.8447 7.43803 18.2091 7.06214C19.2198 5.87946 21.6971 4.60181 21.6971 4.60181C23.2324 3.89829 24.8998 3.53507 26.5866 3.53672C32.0533 3.53672 36.6284 7.25661 37.8165 12.2474L37.967 12.98C38.068 13.5853 38.1191 14.198 38.1197 14.8117C38.1197 21.0394 32.4396 25.9601 26.0813 25.5824C24.8348 25.5033 22.7505 25.6254 21.6949 25.0216C22.8808 26.4417 25.8589 27.3327 28.2733 27.3327C36.5834 27.3327 42.1692 21.5075 42.1692 13.8552C42.1692 6.20283 35.4245 0 27.1099 0C18.7953 0 12.0619 6.20509 12.0619 13.8552" fill="#BF0C2A"/>
</g>
<defs>
<clipPath id="clip0_51_2623">
<rect width="172.014" height="27.9999" fill="white" transform="translate(0.0615234)"/>
</clipPath>
</defs>
</svg>
