<svg width="247" height="40" viewBox="0 0 247 40" fill="none" xmlns="http://www.w3.org/2000/svg">
<g clip-path="url(#clip0_3_52969)">
<path d="M195.44 7.82435C194.816 7.47837 194.136 7.2465 193.432 7.13949C192.408 6.98565 191.373 6.9165 190.339 6.93273H185.612V28.4995H188.282V19.7061H190.695C191.702 19.7221 192.708 19.6344 193.698 19.4444C194.44 19.2934 195.148 19.003 195.783 18.5884C196.622 18.0223 197.297 17.2419 197.737 16.327C198.204 15.3727 198.444 14.3219 198.437 13.258C198.45 12.1573 198.179 11.0721 197.651 10.1083C197.125 9.16537 196.363 8.37782 195.44 7.82435V7.82435ZM195.584 13.3485C195.584 14.5955 195.228 15.4903 194.503 16.075C193.778 16.6598 192.578 16.9699 190.974 16.9699H188.282V9.62051H190.81C192.507 9.62051 193.749 9.92417 194.494 10.5218C195.238 11.1195 195.584 12.0531 195.584 13.3485V13.3485Z" fill="#808080"/>
<path d="M203.917 6.93579H201.238V28.4994H211.229V25.8407H203.917V6.93579Z" fill="#808080"/>
<path d="M221.352 6.93262L213.052 28.4994H215.882L218.365 21.9254H227.169L229.653 28.4994H232.508L224.237 6.93262H221.352ZM226.226 19.412H219.302L222.738 10.1179L226.226 19.412Z" fill="#808080"/>
<path d="M245.086 18.4137C244.444 17.5479 243.43 16.8308 242.028 16.2848C241.624 16.1265 241.066 15.9327 240.382 15.7195C239.176 15.3253 238.364 14.9732 237.963 14.6728C237.61 14.421 237.321 14.089 237.119 13.7036C236.938 13.3037 236.85 12.8671 236.863 12.4276C236.846 11.9931 236.917 11.5596 237.071 11.1533C237.224 10.747 237.458 10.3761 237.758 10.0629C238.056 9.75691 238.414 9.51721 238.81 9.35919C239.206 9.20118 239.63 9.12835 240.055 9.14541C240.439 9.12533 240.823 9.18881 241.181 9.33151C241.539 9.47422 241.862 9.69281 242.128 9.97241C242.648 10.5345 242.959 11.3615 243.058 12.4244L243.084 12.7119H245.632L245.612 12.3888C245.5 10.5668 244.971 9.12602 244.008 8.10842C243.045 7.09081 241.711 6.55778 240.065 6.55778C239.282 6.53189 238.503 6.66886 237.775 6.96013C237.047 7.2514 236.387 7.6907 235.836 8.25056C235.291 8.82359 234.865 9.50068 234.584 10.2419C234.303 10.9832 234.172 11.7736 234.199 12.5665C234.144 13.777 234.519 14.9679 235.255 15.9262C235.964 16.7791 237.116 17.4865 238.691 18.0325L239.08 18.1617L239.202 18.2037C241.999 19.1309 243.373 20.4425 243.373 22.2031C243.373 23.4177 243.052 24.3869 242.394 25.0847C242.053 25.4395 241.64 25.7164 241.183 25.8964C240.727 26.0764 240.237 26.1555 239.747 26.1281C239.281 26.149 238.816 26.0661 238.386 25.8851C237.956 25.7042 237.57 25.4298 237.257 25.0814C236.616 24.3772 236.295 23.408 236.247 22.1934V21.8897H233.654V22.2128C233.683 24.1995 234.257 25.8277 235.364 27.0585C235.913 27.669 236.586 28.152 237.339 28.4739C238.091 28.7958 238.904 28.9489 239.721 28.9225C241.624 28.9225 243.177 28.2603 244.335 26.9551C245.494 25.65 246.062 23.9378 246.062 21.8348C246.039 20.4328 245.718 19.2859 245.086 18.4137Z" fill="#808080"/>
<path d="M75.2539 6.95215V9.66253L77.7245 9.79175V22.3907C77.7245 24.4001 77.1534 25.2981 75.4464 25.2981C74.8857 25.3218 74.3258 25.2362 73.7972 25.0462C73.2293 24.8233 73.1363 24.568 73.1363 23.9639V21.4442L69.9053 21.6444V27.2267C71.616 28.1497 73.535 28.6105 75.4753 28.5642C79.2454 28.5642 81.1448 26.7809 81.4593 23.8799C81.5644 22.7666 81.6072 21.6481 81.5876 20.5299V10.622C81.5876 9.97589 81.87 9.69484 82.5053 9.63023L83.548 9.53655V6.95215H75.2539Z" fill="#BF0C2A"/>
<path d="M87.9599 17.4448C87.9599 13.6522 89.2915 9.8564 93.3407 9.8564C97.714 9.8564 98.5674 14.4469 98.5674 17.6968C98.5674 21.525 97.4252 25.3499 93.4049 25.3499C88.8455 25.3499 87.9503 21.0791 87.9503 17.4448H87.9599ZM83.9942 17.6031C83.9942 24.8717 87.5396 28.5674 93.1739 28.5674C98.715 28.5674 102.479 24.904 102.479 17.6031C102.479 9.50751 98.2369 6.57422 93.5204 6.57422C89.0894 6.57422 83.991 9.4429 83.991 17.6031" fill="#BF0C2A"/>
<path d="M108.796 10.0437H111.106C113.798 10.0437 115.444 10.3959 115.444 13.2742C115.444 15.5356 114.238 16.7793 111.549 16.7793H108.796V10.0437ZM103.13 6.95215V9.66253L104.933 9.75945V24.581C104.933 25.2271 104.551 25.4112 104.012 25.4726L102.966 25.5695V28.1539H110.853V25.4435L108.796 25.3466V19.7998H111.684C112.794 19.7998 113.234 20.2779 113.68 21.2665L115.168 24.4517C115.454 25.0978 115.294 25.3789 114.565 25.4726L113.648 25.5695V28.1539H121.467V25.4435L119.664 25.3789L117.382 20.3716C116.907 19.2894 116.436 18.7564 115.579 18.4333C117.309 17.7291 119.362 16.004 119.362 12.8187C119.362 8.4834 116.42 6.95215 111.764 6.95215H103.13Z" fill="#BF0C2A"/>
<path d="M128.933 10.0435H131.747C135.171 10.0435 137.924 11.6394 137.924 17.3768C137.924 22.4777 135.71 25.0912 132.148 25.0912H128.933V10.0435ZM123.267 6.95196V9.66235L125.07 9.75926V24.5808C125.07 25.2269 124.692 25.411 124.153 25.4724L123.11 25.5693V28.1537H132.094C137.199 28.1505 141.822 25.1558 141.822 16.7985C141.822 10.1695 137.991 6.94873 131.946 6.94873L123.267 6.95196Z" fill="#BF0C2A"/>
<path d="M151.075 10.5218H151.169L154.014 19.6092H148.13L151.075 10.5218ZM146.102 6.9683V9.5527L148.098 9.7433L143 24.6036C142.778 25.2077 142.589 25.4338 142.037 25.4952L140.991 25.5921V28.1765H148.306V25.4435L146.407 25.3466L147.37 22.5425H154.775L155.442 24.5164C155.664 25.2206 155.346 25.4112 154.685 25.4855L153.479 25.5824V28.1668H161.648V25.4435L159.841 25.3466H159.812L153.354 6.95215L146.102 6.9683Z" fill="#BF0C2A"/>
<path d="M175.608 6.95215V9.66253L177.697 9.75945V21.5831H177.633L168.674 6.95215H162.976V9.66253L164.779 9.75945V24.581C164.779 25.2271 164.494 25.4435 163.958 25.4726L162.819 25.5695V28.1539H170.571V25.4435L168.517 25.3466V13.2936H168.581L177.729 28.1539H181.435V10.622C181.435 9.95005 181.717 9.65284 182.192 9.63023L183.334 9.53655V6.95215H175.608Z" fill="#BF0C2A"/>
<path d="M0.324707 30.7156C5.92967 29.1528 11.7302 28.4172 17.545 28.5318C18.2918 28.5539 19.0335 28.6623 19.7557 28.8548L25.5086 26.2704L27.0263 26.9165L21.7482 29.7206C26.3878 32.6442 25.6723 40 25.6723 40C25.6723 40 41.3942 23.3468 53.0637 19.2473C17.6798 20.8884 0.324707 30.7156 0.324707 30.7156ZM29.4231 26.4352L28.1012 25.55L33.4787 23.3339L34.6562 23.8766L29.4231 26.4352ZM37.8648 23.1498L36.9824 22.4197L40.9803 21.2341L41.7696 21.709L37.8648 23.1498ZM45.3407 20.4814L47.837 19.9386L48.299 20.2617L45.8445 20.9659L45.3407 20.4814Z" fill="#383837"/>
<path d="M17.4585 19.7932C17.4575 20.8153 17.5433 21.8355 17.7152 22.8428C18.9986 22.5198 20.3558 22.1967 21.7612 21.8931V21.8705C31.4642 19.8326 41.3204 18.6212 51.2253 18.2491C51.2253 18.2491 30.6906 15.9393 22.2264 17.2799C22.4049 16.5831 22.6289 15.8989 22.897 15.2318C27.7098 14.8215 41.0382 14.0947 51.3184 17.3284C51.3184 17.3284 38.0029 10.0145 24.8061 11.8042C25.2468 11.199 25.7293 10.6258 26.2499 10.0888C27.6938 8.39929 31.2328 6.57406 31.2328 6.57406C33.4261 5.56902 35.8081 5.05013 38.2179 5.0525C46.0275 5.0525 52.5633 10.3667 54.2606 17.4964L54.4756 18.543C54.6199 19.4077 54.6929 20.2829 54.6938 21.1597C54.6938 30.0565 46.5793 37.0861 37.4959 36.5466C35.7152 36.4335 32.7376 36.608 31.2296 35.7454C32.9237 37.7742 37.1783 39.047 40.6275 39.047C52.4991 39.047 60.4788 30.7252 60.4788 19.7932C60.4788 8.86125 50.8435 0 38.9654 0C27.0874 0 17.4681 8.86448 17.4681 19.7932" fill="#BF0C2A"/>
</g>
<defs>
<clipPath id="clip0_3_52969">
<rect width="245.737" height="40" fill="white" transform="translate(0.324707)"/>
</clipPath>
</defs>
</svg>
