<svg width="124" height="48" viewBox="0 0 124 48" fill="none" xmlns="http://www.w3.org/2000/svg">
<g clip-path="url(#clip0_3_52970)">
<path d="M34.4697 21.4677C38.4007 20.3756 42.469 19.8614 46.5472 19.9414C47.071 19.9567 47.5914 20.0325 48.0979 20.1672L52.1357 18.3609L53.1981 18.8125L49.4979 20.7723C52.7524 22.8202 52.2528 27.9614 52.2528 27.9614C52.2528 27.9614 63.2814 16.322 71.4673 13.4568C46.6417 14.5993 34.4697 21.4677 34.4697 21.4677ZM54.8816 18.476L53.9543 17.8574L57.7266 16.3085L58.5413 16.6878L54.8816 18.476ZM60.8056 16.1798L60.1889 15.6695L62.991 14.8409L63.547 15.1728L60.8056 16.1798ZM66.0453 14.3148L67.7964 13.9355L68.1227 14.1612L66.4009 14.6535L66.0453 14.3148Z" fill="#383837"/>
<path d="M88.1337 33.2403C87.6976 32.9983 87.222 32.8363 86.7292 32.7616C86.0112 32.6541 85.2855 32.6058 84.5595 32.6171H81.2419V47.6907H83.1146V41.5447H84.8071C85.5137 41.5559 86.2196 41.4946 86.9138 41.3619C87.4346 41.2563 87.9309 41.0533 88.3768 40.7635C88.9653 40.3679 89.4383 39.8224 89.7475 39.183C90.0751 38.516 90.2431 37.7816 90.2381 37.038C90.2494 36.2693 90.0617 35.5108 89.6935 34.8366C89.3226 34.1761 88.7846 33.6254 88.1337 33.2403V33.2403ZM88.2372 37.1012C88.2372 37.9728 87.9874 38.5982 87.4765 39.0069C86.9656 39.4156 86.126 39.6323 85.0007 39.6323H83.1078V34.4956H84.8814C86.072 34.4956 86.9408 34.7079 87.4652 35.1256C87.9897 35.5433 88.2372 36.1958 88.2372 37.1012Z" fill="#808080"/>
<path d="M94.0825 32.6196H92.2031V47.691H99.2119V45.8327H94.0825V32.6196Z" fill="#808080"/>
<path d="M106.311 32.6172L100.481 47.6908H102.466L104.208 43.096H110.396L112.14 47.6908H114.143L108.336 32.6172H106.311ZM109.729 41.3394H104.875L107.285 34.8435L109.729 41.3394Z" fill="#808080"/>
<path d="M122.966 40.6418C122.516 40.0367 121.805 39.5354 120.821 39.1538C120.538 39.0432 120.146 38.9077 119.667 38.7587C118.82 38.4833 118.249 38.2371 117.97 38.0272C117.722 37.8512 117.519 37.6191 117.378 37.3498C117.25 37.0705 117.187 36.7653 117.195 36.4579C117.183 36.1551 117.232 35.8529 117.339 35.5693C117.445 35.2857 117.608 35.0266 117.817 34.8074C118.026 34.5936 118.277 34.4261 118.555 34.3156C118.832 34.2052 119.13 34.1543 119.428 34.1662C119.698 34.1522 119.967 34.1965 120.218 34.2963C120.469 34.396 120.695 34.5488 120.882 34.7442C121.281 35.2282 121.51 35.8303 121.535 36.4579L121.553 36.6589H123.34L123.326 36.4331C123.248 35.1597 122.876 34.1526 122.201 33.4414C121.526 32.7302 120.589 32.3576 119.435 32.3576C118.886 32.3395 118.339 32.4353 117.829 32.6388C117.318 32.8424 116.855 33.1495 116.468 33.5408C116.086 33.9413 115.787 34.4145 115.59 34.9326C115.393 35.4506 115.301 36.0031 115.32 36.5573C115.284 37.4084 115.552 38.2445 116.077 38.9145C116.572 39.5106 117.382 40.0051 118.487 40.3866L118.76 40.477L118.845 40.5063C120.806 41.1543 121.771 42.071 121.771 43.3016C121.771 44.1505 121.546 44.8279 121.085 45.3156C120.845 45.5636 120.556 45.7571 120.235 45.8829C119.915 46.0088 119.571 46.064 119.228 46.0449C118.901 46.0595 118.575 46.0015 118.273 45.875C117.971 45.7486 117.701 45.5568 117.481 45.3133C117.031 44.8211 116.806 44.1437 116.772 43.2948V43.0825H114.954V43.3083C114.974 44.6969 115.377 45.8349 116.153 46.6951C116.538 47.1219 117.011 47.4595 117.538 47.6844C118.066 47.9094 118.637 48.0164 119.21 47.9979C120.544 47.9979 121.634 47.5464 122.446 46.6229C123.259 45.6994 123.657 44.514 123.657 43.0442C123.641 42.053 123.416 41.2514 122.966 40.6418Z" fill="#808080"/>
<path d="M3.82814 32.6309V34.5252L5.56121 34.6155V43.4212C5.56121 44.8256 5.16058 45.4533 3.96319 45.4533C3.56986 45.4699 3.17705 45.4101 2.80631 45.2772C2.40793 45.1214 2.34266 44.9431 2.34266 44.5208V42.7597L0.0761719 42.8997V46.799C1.27619 47.4441 2.62238 47.7662 3.98345 47.7338C6.62806 47.7338 7.96049 46.4874 8.18106 44.4599C8.2548 43.6817 8.28486 42.9 8.27109 42.1185V35.1958C8.27109 34.7442 8.46916 34.5478 8.9148 34.5026L9.64629 34.4372V32.6309H3.82814Z" fill="#BF0C2A"/>
<path d="M12.7409 39.9644C12.7409 37.3137 13.675 34.6607 16.5154 34.6607C19.5832 34.6607 20.1819 37.8691 20.1819 40.1406C20.1819 42.8161 19.3806 45.4895 16.5604 45.4895C13.3621 45.4895 12.7342 42.5046 12.7342 39.9644H12.7409ZM9.95904 40.0751C9.95904 45.1553 12.4461 47.7383 16.3984 47.7383C20.2854 47.7383 22.9255 45.1779 22.9255 40.0751C22.9255 34.4169 19.95 32.3667 16.6415 32.3667C13.5332 32.3667 9.95679 34.3717 9.95679 40.0751" fill="#BF0C2A"/>
<path d="M27.3574 34.7916H28.9779C30.8663 34.7916 32.0209 35.0378 32.0209 37.0495C32.0209 38.63 31.1747 39.4993 29.2863 39.4993H27.3574V34.7916ZM23.3826 32.6309V34.5252L24.6475 34.593V44.9521C24.6475 45.4037 24.3797 45.5324 24.0016 45.5753L23.2678 45.643V47.4493H28.8001V45.5572L27.3574 45.4895V41.6104H29.3831C30.1596 41.6104 30.4702 41.9446 30.783 42.6355L31.8274 44.8618C32.0277 45.3133 31.9151 45.5098 31.4042 45.5753L30.7605 45.643V47.4493H36.2456V45.5572L34.9806 45.512L33.3804 42.0123C33.0473 41.2559 32.7164 40.8834 32.1155 40.6576C33.3354 40.1676 34.7803 38.9619 34.7803 36.7357C34.7803 33.7056 32.7164 32.6354 29.4506 32.6354L23.3826 32.6309Z" fill="#BF0C2A"/>
<path d="M41.4896 34.7916H43.4635C45.865 34.7916 47.7962 35.907 47.7962 39.917C47.7962 43.4822 46.2432 45.3088 43.7449 45.3088H41.4896V34.7916ZM37.5148 32.6309V34.5252L38.7797 34.593V44.9521C38.7797 45.4037 38.5142 45.5324 38.136 45.5753L37.4045 45.643V47.4493H43.7066C47.283 47.4493 50.5241 45.3562 50.5241 39.5174C50.5241 34.8842 47.8367 32.6331 43.5963 32.6331L37.5148 32.6309Z" fill="#BF0C2A"/>
<path d="M57.0199 35.1258H57.0851L59.0838 41.4772H54.9492L57.0199 35.1258ZM53.5312 32.6421V34.4484L54.9312 34.5816L51.3548 44.9678C51.1995 45.3901 51.0667 45.5481 50.6795 45.591L49.9458 45.6587V47.465H55.0775V45.5729L53.745 45.5052L54.4203 43.5454H59.6149L60.0831 44.9249C60.2384 45.4172 60.0156 45.5504 59.5519 45.6023L58.7056 45.67V47.4763H64.4338V45.5842L63.1689 45.5165H63.1486L58.6179 32.6601L53.5312 32.6421Z" fill="#BF0C2A"/>
<path d="M74.2244 32.6309V34.5252L75.6896 34.593V42.8568H75.6446L69.3605 32.6309H65.3632V34.5252L66.6281 34.593V44.9521C66.6281 45.4037 66.4278 45.5549 66.0519 45.5753L65.2529 45.643V47.4493H70.6907V45.5572L69.2502 45.4895V37.0631H69.2953L75.7121 47.4493H78.3117V35.1958C78.3117 34.7262 78.5098 34.5184 78.8429 34.5026L79.6441 34.4372V32.6309H74.2244Z" fill="#BF0C2A"/>
<path d="M46.4885 13.834C46.4882 14.5482 46.5476 15.2612 46.6663 15.9654C47.5666 15.7397 48.5209 15.5139 49.5068 15.3016V15.2858C56.3124 13.8613 63.2256 13.0146 70.173 12.7547C70.173 12.7547 55.7683 11.1404 49.8331 12.0774C49.9583 11.5903 50.1155 11.1121 50.3035 10.6459C53.6796 10.3591 63.0292 9.85112 70.2405 12.1113C70.2405 12.1113 60.9 6.99942 51.6427 8.25028C51.9512 7.82677 52.2897 7.42609 52.6555 7.05135C53.6684 5.85242 56.1509 4.58801 56.1509 4.58801C57.6894 3.88556 59.3604 3.52289 61.0508 3.52455C66.5291 3.52455 71.1138 7.23875 72.3045 12.2219L72.4553 12.9534C72.5565 13.5578 72.6077 14.1695 72.6083 14.7823C72.6083 21.0005 66.9162 25.9137 60.5444 25.5366C59.293 25.4576 57.2065 25.5795 56.1487 24.9766C57.3371 26.3946 60.3215 27.2842 62.7411 27.2842C71.0688 27.2842 76.6641 21.4679 76.6641 13.8272C76.6641 6.18658 69.9074 0 61.573 0C53.2385 0 46.493 6.19561 46.493 13.834" fill="#BF0C2A"/>
</g>
<defs>
<clipPath id="clip0_3_52970">
<rect width="123.581" height="47.9999" fill="white" transform="translate(0.0761719)"/>
</clipPath>
</defs>
</svg>
